<svg width="0" height="0" class="hidden">
	<symbol xmlns="http://www.w3.org/2000/svg" viewBox="0 0 29 29" id="icon-search">
		<path d="M21.667 19.664a12.14 12.14 0 002.61-7.515C24.277 5.462 18.827 0 12.122 0 5.417 0 0 5.462 0 12.15 0 18.837 5.45 24.3 12.122 24.3c2.675 0 5.35-.928 7.498-2.616L26.92 29 29 26.914l-7.333-7.25zm-9.545 1.755c-5.054 0-9.182-4.138-9.182-9.203 0-5.065 4.128-9.203 9.182-9.203 5.053 0 9.182 4.138 9.182 9.203 0 5.065-4.129 9.203-9.182 9.203z"></path>
	</symbol>
	<symbol xmlns="http://www.w3.org/2000/svg" viewBox="0 0 26 44" id="arrow-left">
		<path fill-rule="evenodd" clip-rule="evenodd" d="M21.768 0l3.535 3.536L7.071 21.768 25.303 40l-3.535 3.535L0 21.768 21.768 0z"></path>
	</symbol>
	<symbol xmlns="http://www.w3.org/2000/svg" viewBox="0 0 27 44" id="arrow-right">
		<path fill-rule="evenodd" clip-rule="evenodd" d="M4.495.232L.96 3.768 19.192 22 .96 40.232l3.535 3.536L26.263 22 4.495.232z"></path>
	</symbol>
	<symbol xmlns="http://www.w3.org/2000/svg" viewBox="0 0 24 24" id="close">
		<path fill-rule="evenodd" clip-rule="evenodd" d="M22.82 3.314L2.314 23.82.547 22.053 21.053 1.547l1.767 1.767z"></path>
		<path fill-rule="evenodd" clip-rule="evenodd" d="M21.406 23.113L.899 2.607 2.667.839l20.506 20.506-1.767 1.768z" ></path>
	</symbol>
	<symbol xmlns="http://www.w3.org/2000/svg" viewBox="0 0 17 12" id="dropdown-arrow">
		<path fill-rule="evenodd" clip-rule="evenodd" d="M8.5 11.204L.9 3.021 3.1.979l5.4 5.817L13.9.979l2.2 2.042-7.6 8.183z"></path>
	</symbol>
	<symbol xmlns="http://www.w3.org/2000/svg" viewBox="0 0 20 20" id="icon-filter">
		<path d="M10 14c1.312 0 2.427.842 2.835 2.015l.048-.008L13 16h6a1 1 0 01.117 1.993L19 18h-6c-.057 0-.112-.005-.166-.014a3 3 0 01-5.669-.001l-.048.008L7 18H1a1 1 0 01-.117-1.993L1 16h6c.057 0 .112.005.166.014A3 3 0 0110 14zm0 2a1 1 0 100 2 1 1 0 000-2zM3 7c1.312 0 2.427.842 2.835 2.015l.048-.008L6 9h13a1 1 0 01.117 1.993L19 11H6a1.01 1.01 0 01-.166-.014A3 3 0 113 7zm0 2a1 1 0 100 2 1 1 0 000-2zm11-9a3 3 0 012.834 2.015l.05-.008L17 2h2a1 1 0 01.117 1.993L19 4h-2c-.057 0-.112-.005-.166-.014a3 3 0 01-5.668-.001l-.05.008L11 4H1a1 1 0 01-.117-1.993L1 2h10c.057 0 .112.005.166.014A3 3 0 0114 0zm0 2a1 1 0 100 2 1 1 0 000-2z"></path>
	</symbol>
	<symbol xmlns="http://www.w3.org/2000/svg" viewBox="0 0 25 27" id="icon-download">
		<path fill-rule="evenodd" clip-rule="evenodd" d="M10.597 17.742V0h3v17.742h-3z"></path>
		<path fill-rule="evenodd" clip-rule="evenodd" d="M4.586 12.35l2.12-2.12 5.392 5.39 5.39-5.39 2.122 2.12-7.512 7.513-7.512-7.512zM25 26.5H0v-3h25v3z"></path>
	</symbol>
	<symbol xmlns="http://www.w3.org/2000/svg" viewBox="0 0 185 185" id="he-shape-circle">
		<path d="M15.192 41.69a92.726 92.726 0 011.858-2.715l91.362 49.88 38.753-70.982a92.413 92.413 0 012.635 2.007l-38.515 70.544.028.015-1.569 2.874-94.552-51.622z"></path>
		<path d="M10.872 48.95a92.71 92.71 0 011.595-2.86l99.153 54.135 42.085-77.082a94.07 94.07 0 012.486 2.277l-41.697 76.374.028.015-1.569 2.874-102.08-55.732z"></path>
		<path d="M7.235 56.575c.426-1.01.87-2.012 1.331-3.004l106.264 58.017 45.032-82.481a94.09 94.09 0 012.329 2.568l-44.487 81.482.066.035-1.569 2.874L7.235 56.576z"></path>
		<path d="M4.287 64.584a91.05 91.05 0 011.06-3.152l112.728 61.546 47.563-87.116a93.72 93.72 0 012.153 2.89l-46.842 85.795.028.015-1.569 2.874L4.287 64.584z"></path>
		<path d="M2.053 73.03c.238-1.11.495-2.213.773-3.308l118.437 64.662 49.66-90.959a92.968 92.968 0 011.952 3.259l-48.738 89.269.027.016-1.569 2.873L2.053 73.03z"></path>
		<path d="M.606 81.856c.133-1.166.289-2.325.465-3.477l123.399 67.372 51.201-93.78a90.427 90.427 0 011.708 3.704l-50.035 91.645.028.015-1.569 2.874L.606 81.856z"></path>
		<path d="M.01 91.143c.017-1.226.059-2.447.124-3.662l127.546 69.635 52.078-95.388a91.22 91.22 0 011.393 4.282l-51.382 94.114-.893-.488-.784 1.436L.01 91.143z"></path>
		<path d="M.382 100.965a93.083 93.083 0 01-.27-3.878l130.812 71.419 52.052-95.34c.359 1.688.672 3.394.938 5.115l-50.901 93.231-.93-.508-.784 1.437L.382 100.965zm1.568 10.523a92.009 92.009 0 01-.766-4.149l128.222 70.005a90.83 90.83 0 01-3.908 1.597L1.951 111.488zm3.13 11.323a91.865 91.865 0 01-1.435-4.514l115.203 62.896a92.034 92.034 0 01-4.579 1.231L5.081 122.811zm5.45 12.592a91.566 91.566 0 01-2.468-5.078l98.264 53.649c-1.854.277-3.725.5-5.612.666L10.53 135.403zm9.806 14.969a92.809 92.809 0 01-4.596-6.239l74.817 40.847a93.308 93.308 0 01-7.707-.477l-62.514-34.131zm45.299 30.667a92.314 92.314 0 01-32.989-18.011l32.99 18.011zm116.2-64.459l-20.727 37.963a93.128 93.128 0 01-8.017 7.852l30.982-56.747a92.197 92.197 0 01-2.238 10.932zm3.004-29.584a93.84 93.84 0 01.155 6.548l-41.61 76.216a93.496 93.496 0 01-5.595 3.414l47.05-86.178zm-41.797-71.98L108.098 79.02l.028.016-1.569 2.874L20.22 34.773a92.975 92.975 0 012.13-2.568l82.874 45.246 35.041-64.18a93.734 93.734 0 012.777 1.745z"></path>
		<path d="M135.888 10.787L104.854 67.63l.065.037-1.569 2.873-77.417-42.267a92.929 92.929 0 012.415-2.412l73.631 40.2L132.969 9.3a91.01 91.01 0 012.919 1.488z"></path>
		<path d="M128.416 7.231l-26.77 49.032.027.015-1.569 2.874-67.708-36.966a93.087 93.087 0 012.725-2.243l63.651 34.751 26.583-48.69c1.029.392 2.05.8 3.061 1.227z"></path>
		<path d="M120.581 4.34L98.437 44.9l.027.015-1.569 2.874-57.213-31.237a92.88 92.88 0 013.074-2.052l52.807 28.83 21.81-39.948c1.077.3 2.147.62 3.208.957z"></path>
		<path d="M112.368 2.139L95.251 33.492l.028.015-1.57 2.874-45.743-24.974a92.483 92.483 0 013.49-1.825l40.92 22.34 16.628-30.454c1.128.203 2.25.427 3.364.67z"></path>
		<path d="M103.707.672l-11.7 21.43.065.036-1.57 2.874-33.15-18.1a91.889 91.889 0 014.01-1.54l27.77 15.161 11.04-20.22a95.67 95.67 0 013.535.359z"></path>
		<path d="M94.644.024l-5.848 10.712.028.015-1.569 2.874-19.05-10.401a91.847 91.847 0 014.726-1.15l12.992 7.093L90.92.013a94.486 94.486 0 013.724.011z"></path>
		<path d="M85.123.29L84.07 2.218 81.248.678A92.887 92.887 0 0185.123.29z"></path>
	</symbol>
	<symbol xmlns="http://www.w3.org/2000/svg" viewBox="0 0 311 527" id="he-shape-masthead-1">
		<path d="M9.226 181.585v12.576H6.48a373.91 373.91 0 00-1.69 9h13.442v-9h-.007v-44.873c-3.391 10.572-6.425 21.37-9 32.297z"></path>
		<path d="M30.32 115.989v100.183H2.772a325.326 325.326 0 00-1.094 9h37.65v-9h-.006V95.182a496.576 496.576 0 00-9 20.807z"></path>
		<path d="M51.416 70.688v167.49H.556a289.32 289.32 0 00-.438 9H60.54v-9h-.123V54.47a460.446 460.446 0 00-9 16.218z"></path>
		<path d="M72.628 34.77v225.421H0c.046 3.008.145 6.008.298 9h81.337v-9h-.007V21.846a322.372 322.372 0 00-9 12.924z"></path>
		<path d="M93.724 6.684V282.32H1.33c.322 3.013.704 6.014 1.148 9H102.73v-9h-.006V25.881C100.161 10.027 99.959 0 99.959 0a141.456 141.456 0 00-6.235 6.684z"></path>
		<path d="M114.821 73.865V304.33H4.831c.645 3.019 1.36 6.02 2.145 9h116.851v-9h-.006V96.45a266.298 266.298 0 01-9-22.585z"></path>
		<path d="M135.916 119.786v206.553H10.909a179.085 179.085 0 003.356 9h130.774v-9h-.123V133.866a229.526 229.526 0 01-9-14.08z"></path>
		<path d="M157.13 149.891v198.458H20.153a168.919 168.919 0 004.882 9h141.101v-9h-.006v-187.61c-2.311-2.794-4.523-5.457-6.621-7.983l-2.379-2.865z"></path>
		<path d="M178.225 175.483v194.996H33.379a239.088 239.088 0 006.474 9h147.378v-9h-.006V186.682a1440.672 1440.672 0 00-9-11.199z"></path>
		<path d="M199.323 202.148v190.339H50.375a268.437 268.437 0 008.148 9H208.33v-9h-.007V214.025c-3.031-4.06-6.036-8.022-9-11.877z"></path>
		<path d="M220.418 230.595v183.904H71.677c3.318 3.08 6.699 6.08 10.134 9h147.73v-9h-.123V243.465c-2.995-4.37-6-8.662-9-12.87z"></path>
		<path d="M241.63 261.832V436.51H98.125a372.03 372.03 0 0012.557 9h139.955v-9h-.007V276.189a682.512 682.512 0 00-9-14.357z"></path>
		<path d="M262.726 296.919v161.72H131.12a454.476 454.476 0 0015.65 9h124.963v-9h-.007V313.766a538.238 538.238 0 00-9-16.847z"></path>
		<path d="M283.822 339.258v141.393h-111.67a574.135 574.135 0 0019.773 9h101.019v-9h-.122V361.694a390.836 390.836 0 00-9-22.436zm21.211 152.492v-87.848c6.2 29.64 7.075 59.345 0 87.848zm-3.121 10.911h-77.547a828.1 828.1 0 0025.55 9h48.767a159.167 159.167 0 003.23-9zm-9.038 22.011h-3.54c1.265.514 2.223.967 2.847 1.365.233-.454.464-.909.693-1.365z"></path>
	</symbol>
	<symbol xmlns="http://www.w3.org/2000/svg" viewBox="0 0 687 833" id="he-shape-masthead-2">
		<path d="M0 832.618V715.629a752.478 752.478 0 0112-55.848v172.454c-3.97.16-7.97.287-12 .383zm42.438-2.273c-3.967.336-7.967.638-12 .907V598.113a799.263 799.263 0 0112-32.559v264.791zm30.279-3.282a624.915 624.915 0 01-12 1.476V522.755a816.68 816.68 0 0112-24.885v329.193zm30.282-4.807a577.42 577.42 0 01-12 2.097V463.584a830.838 830.838 0 0112-20.588v379.26zm30.287-6.485c-3.96.965-7.96 1.892-12 2.781V413.985a851.753 851.753 0 0112-17.716v419.502zm30.441-8.389a511.438 511.438 0 01-12 3.544V370.774a871.502 871.502 0 0112-15.6v452.208zm30.283-10.418a486.92 486.92 0 01-12 4.391V332.718a895.982 895.982 0 0112-13.965v478.211zm30.287-12.748a463.499 463.499 0 01-12 5.348V298.525a940.345 940.345 0 0112-12.642v498.333zm30.28-15.388a458.277 458.277 0 01-12 6.439l-.001-507.769a968.741 968.741 0 0112-11.541l.001 512.871zm30.438-18.537a449.45 449.45 0 01-12 7.706v-478.39h-.275v-12h269.647l-.52 2.678c-.589 3.034-1.193 6.143-1.813 9.322H285.015v470.684z"></path>
		<path d="M315.298 728.279a448.686 448.686 0 01-12 9.187V310.539h-.115v-12h233.132c-.787 3.919-1.6 7.921-2.442 12H315.298v417.74z"></path>
		<path d="M345.579 702.028a460.725 460.725 0 01-12 10.963v-371.53h-.116v-12h196.402a1500.07 1500.07 0 01-2.661 12H345.579v360.567z"></path>
		<path d="M375.86 670.602a486.181 486.181 0 01-12 13.147v-311.19h-.116v-12h159.003a1277.11 1277.11 0 01-2.955 12H375.86v298.043z"></path>
		<path d="M406.299 632.441a528.174 528.174 0 01-12 15.943V403.501h-.275v-12H514.86c-1.07 3.971-2.171 7.972-3.306 12H406.299v228.94z"></path>
		<path d="M436.584 585.869a587.79 587.79 0 01-12 19.657v-171.1h-.115v-12h81.558a967.275 967.275 0 01-3.715 12h-65.728v151.443z"></path>
		<path d="M466.864 527.298a691.042 691.042 0 01-12 24.962v-86.742h-.116v-12h41.29a887.31 887.31 0 01-4.188 12h-24.986v61.78zm82.173-290.625a447.51 447.51 0 00-2.823 12H262.367c4.337-4.01 8.742-8.01 13.217-12h273.453zm8.955-31.091a462.65 462.65 0 00-3.739 12H297.638a1023.51 1023.51 0 0114.544-12h245.81zm11.314-30.931a476.93 476.93 0 00-4.679 12H336.271a1081.827 1081.827 0 0116.042-12h216.993zm13.794-30.919a500.961 500.961 0 00-5.655 12H378.918a1135.001 1135.001 0 0117.765-12H583.1zm16.416-30.936a518.584 518.584 0 00-6.688 12H426.246a1207.015 1207.015 0 0119.781-12h153.489zM618.843 81.7a536.905 536.905 0 00-7.81 12H479.346a1306.218 1306.218 0 0122.2-12h117.297zm22.35-30.93a530.712 530.712 0 00-9.07 12h-93.349a1409.236 1409.236 0 0125.147-12h77.272zm26.09-30.924a473.71 473.71 0 00-10.638 12h-50.298c9.48-4.053 19.107-8.054 28.88-12h32.056zM685.92.91c.655-.604.999-.91.999-.91l-2.49.91h1.491z"></path>
	</symbol>
	<symbol xmlns="http://www.w3.org/2000/svg" viewBox="0 0 795 478" id="he-shape-masthead-3">
		<path d="M73.359.982h276.826c18.904 3.323 37.033 7.348 54.417 12H3.392c11.241-2.236 22.271-4.232 32.954-6.053A1226.19 1226.19 0 0173.359.982zM50.296 43.87c-18.233-5.83-34.93-9.602-49.565-12h462.144a547.736 547.736 0 0128.764 12H50.296zm71.053 30.884a412.895 412.895 0 00-23.357-12h431.424a516.984 516.984 0 0120.634 12H121.349zm48.262 31.054a462.767 462.767 0 00-17.076-12h426.367a508.735 508.735 0 0116.207 12H169.611zm37.641 30.886a236.105 236.105 0 00-8.383-7.532 512.872 512.872 0 00-5.257-4.468h424.551a510.742 510.742 0 0113.328 12H207.252zM225.5 155.58h406.08v-.159h12V477.5c-4.048.026-8.048.001-12-.075V167.58H235.705a388.372 388.372 0 00-10.205-12z"></path>
		<path d="M250.383 186.466h350.796v-.158h12v290.378a410.34 410.34 0 01-12-.914V198.466H259.102a721.578 721.578 0 00-8.719-12z"></path>
		<path d="M272.33 217.517h298.608v-.324h12V473.68a366.556 366.556 0 01-12-1.867V229.517h-290.52c-2.7-4.036-5.394-8.038-8.088-12z"></path>
		<path d="M292.975 248.404h247.722v-.157h12V468.17a336.01 336.01 0 01-12-2.962V260.404H300.943a7487.462 7487.462 0 01-7.968-12z"></path>
		<path d="M313.632 279.29h196.829v-.158h12v180.646a316.351 316.351 0 01-12-4.229V291.29H321.878c-2.779-3.998-5.526-8-8.246-12z"></path>
		<path d="M335.312 310.177h144.749v-.158h12v137.949a309.101 309.101 0 01-12-5.712V322.177H344.236a792.277 792.277 0 01-8.924-12z"></path>
		<path d="M359.238 341.229h90.582v-.324h12v91.406a319.144 319.144 0 01-12-7.436v-71.646h-80.469a550.268 550.268 0 01-10.113-12z"></path>
		<path d="M398.688 384.115a420.26 420.26 0 01-12.067-12h32.961v-.158h12v40.145a349.696 349.696 0 01-12-9.439v-18.548h-20.894zm263.129 92.922V167.422a530.472 530.472 0 0112 13.669v295.283c-4.045.269-8.044.49-12 .663zm30.24-2.184V203.806a557.75 557.75 0 0112 16.408v253.32a597.7 597.7 0 01-12 1.319zm30.24-3.783V247.807a585.729 585.729 0 0112 20.244v201.111a677.072 677.072 0 01-12 1.908zm30.398-5.25V303.222a615.368 615.368 0 0112 26.478v133.681a761.717 761.717 0 01-12 2.439zm30.24-6.519V378.15c5.242 15.942 9.148 30.068 12 41.706v36.526a858.123 858.123 0 01-12 2.919z"></path>
	</symbol>
	<symbol xmlns="http://www.w3.org/2000/svg" viewBox="0 0 18 14" id="arrow-line-right">
		<path fill-rule="evenodd" clip-rule="evenodd" d="M8.754 12.106l3.925-3.766H0V5.66h12.556L8.63 1.895 10.604 0 18 7.023 10.728 14l-1.974-1.894z"></path>
	</symbol>
	<symbol xmlns="http://www.w3.org/2000/svg" viewBox="0 0 29 23" id="hamburger">
		<path fill-rule="evenodd" clip-rule="evenodd" d="M29 3H0V.5h29V3zm0 9.902H0v-2.5h29v2.5zm0 9.903H0v-2.5h29v2.5z"></path>
	</symbol>
	<symbol xmlns="http://www.w3.org/2000/svg" viewBox="0 0 256 71" id="logo">
	    <path d="M2.75 26.782c8.302 4.527 11.965 7.415 20.525 17.863-.55 1.112-10.436 14.94-21.053 26.029 0 0 .46 1.011 3.157-.584 2.674-1.584 5.022-4.01 7.246-6.145 3.988-3.82 7.83-7.875 11.19-12.245 3.47-4.517 6.886-9.28 10.896-13.313 3.55-3.572 7.471-6.797 11.718-9.504a51.373 51.373 0 014.898-2.786c1.887-.944 1.573-1.517 1.573-1.517-15.459 2.73-26.434 15.908-26.513 15.83C13.973 27.062.627 24.826.009 24.703c0 0-.314.415 2.741 2.078z"></path>
	    <path d="M27.082 31.939c11.324-.124 13.032-10.324 13.818-14.312.787-3.988 3.573-6.449 3.573-6.449-18.334 6.707-17.39 20.761-17.39 20.761zM5.491 17.29c-.741.134-1.494.292-2.292.483l.011.056c.877-.023 3.63.123 6.561 2.651 3.573 3.067 4.617 11.448 15.784 8.56.011 0-2.056-14.918-20.064-11.75z"></path>
	    <path d="M19.557 12.414c.506 6.156 6.617 11.088 6.965 11.706 5.146-3.797 2.798-13.571 1.966-17.222C27.646 3.247 29.14 0 29.14 0c-2.82.932-10.1 6.246-9.583 12.414zM56 43.566c0-.146.046-.258.147-.337.09-.079.236-.146.438-.191.977-.292 1.651-.831 2-1.618a201.153 201.153 0 004.201-10.616c.191-.528.337-.977.438-1.348.101-.37.158-.573.169-.607a16.018 16.018 0 001.64-.483 3.28 3.28 0 001.18-.842.433.433 0 01.19-.068c.102 0 .158.045.191.146a3.6 3.6 0 01.236.652c1.056 3.404 2.472 7.774 4.225 13.099.27.865.943 1.427 2 1.685.19.045.336.112.437.191a.37.37 0 01.146.315.32.32 0 01-.135.27c-.09.067-.202.09-.348.09l-1.83-.046a34.32 34.32 0 00-2.08-.067c-.303 0-.887.01-1.763.045a54.18 54.18 0 01-1.854.045.754.754 0 01-.37-.09c-.102-.056-.158-.135-.158-.259 0-.236.191-.404.573-.505.562-.113.978-.259 1.225-.427.258-.169.382-.393.382-.685 0-.068-.011-.18-.045-.337l-.438-1.73-.337-1.281c-.034-.124-.079-.225-.146-.281-.068-.056-.158-.079-.292-.079h-4.27a.364.364 0 00-.269.101c-.067.068-.112.169-.146.315-.438 1.314-.72 2.213-.843 2.674a1.788 1.788 0 00-.067.483.95.95 0 00.36.775c.247.19.64.36 1.202.483.382.079.572.247.572.506 0 .224-.18.337-.55.337l-1.303-.023a20.979 20.979 0 00-1.315-.045 9.51 9.51 0 00-.764.034 8.58 8.58 0 01-.617.034c-.45.044-.922.067-1.405.067-.404.011-.606-.124-.606-.382zm9.572-6.65c.236 0 .36-.057.36-.17a1.07 1.07 0 00-.045-.235l-1.618-5.449c-.045-.18-.101-.27-.146-.27-.011 0-.079.09-.169.27l-1.91 5.449a.397.397 0 00-.044.191c0 .146.146.213.438.213h3.134zm9.952 6.245c-.258-.157-.427-.348-.505-.572-.146-.416-.247-.944-.326-1.573a11.02 11.02 0 01-.056-1.933c0-.213.157-.314.483-.314.146 0 .247.022.314.056a.66.66 0 01.192.225c.348 1.236.887 2.224 1.595 2.943.707.72 1.516 1.09 2.438 1.09.707 0 1.27-.236 1.673-.708a2.38 2.38 0 00.618-1.629c0-.494-.1-.921-.292-1.27a3.01 3.01 0 00-.842-.943c-.371-.28-.91-.618-1.618-1-.91-.517-1.64-.966-2.168-1.348a5.13 5.13 0 01-1.36-1.494c-.382-.607-.561-1.348-.561-2.213 0-.921.247-1.73.73-2.438a4.767 4.767 0 012.01-1.64c.855-.382 1.81-.584 2.866-.584.561 0 1.123.056 1.673.168a7.36 7.36 0 011.416.416c.191.078.337.168.427.27.09.1.168.269.225.505.19.775.292 1.707.292 2.82a.27.27 0 01-.124.213.46.46 0 01-.314.101.673.673 0 01-.394-.112c-.123-.079-.202-.169-.224-.281-.27-.966-.674-1.696-1.202-2.19-.528-.495-1.18-.753-1.955-.753-1.494 0-2.247.719-2.247 2.168 0 .517.258 1 .775 1.472.517.471 1.337 1.033 2.483 1.685 1.303.786 2.224 1.55 2.752 2.291.528.742.798 1.652.798 2.73 0 1.607-.517 2.82-1.528 3.629-1.022.809-2.427 1.224-4.201 1.224-1.495 0-2.764-.336-3.843-1.01zm11.696.697c-.146-.079-.213-.18-.213-.292 0-.259.213-.427.629-.506.607-.112 1.011-.27 1.202-.483.191-.213.292-.573.292-1.112v-10.93c0-.529-.112-.9-.326-1.113-.213-.202-.651-.382-1.292-.528-.337-.079-.505-.247-.505-.505 0-.113.045-.203.146-.27a.57.57 0 01.337-.101c.595 0 1.202.022 1.831.067.775.034 1.314.045 1.618.045.303 0 .842-.011 1.618-.045a51.022 51.022 0 011.887-.045c.292 0 .438.113.438.337a.431.431 0 01-.124.326.965.965 0 01-.415.18c-.63.18-1.034.37-1.225.595-.19.214-.292.573-.292 1.079v4.898c0 .258.079.382.236.382.112 0 .315-.124.607-.382l4.628-4.988c.303-.337.46-.584.46-.753 0-.337-.325-.573-.988-.719-.36-.1-.528-.27-.528-.528 0-.1.056-.18.157-.247a.585.585 0 01.326-.101h1.663l2.359-.023a74.702 74.702 0 012.415-.044c.158 0 .304.033.439.1.123.068.191.147.191.248 0 .123-.068.236-.214.326a1.42 1.42 0 01-.505.18c-1.427.19-2.663.696-3.719 1.493-.45.36-.921.764-1.427 1.236-.494.472-.977.933-1.449 1.404-.27.27-.708.697-1.303 1.281-.112.112-.169.214-.169.315 0 .112.068.247.191.404l5.764 6.46c.381.415.752.741 1.089.977.337.236.809.427 1.393.584.259.079.45.146.573.203a.28.28 0 01.18.28c0 .124-.079.225-.247.304-.157.078-.382.112-.674.112-.326 0-.697-.011-1.135-.022-.438-.012-.764-.034-.988-.045a34.3 34.3 0 00-2.191-.101c-.348 0-.831.01-1.45.045-.494.044-1.022.067-1.572.067a.53.53 0 01-.337-.112c-.101-.08-.146-.158-.146-.259 0-.258.157-.427.483-.505.64-.124.977-.349 1.01-.652 0-.18-.134-.438-.403-.798l-3.933-4.56c-.202-.259-.404-.383-.572-.383-.146 0-.214.135-.214.382 0 1.899.023 3.36.079 4.393.034.494.135.854.292 1.067.157.214.528.405 1.112.573.225.068.393.135.494.191a.326.326 0 01.158.292c0 .113-.068.202-.214.281a1.132 1.132 0 01-.483.112c-.415 0-1.09-.045-2.022-.123-.146-.011-.315-.034-.506-.045a11.62 11.62 0 00-.696-.023c-.27 0-.697.034-1.28.102-.742.1-1.428.145-2.045.145-.191 0-.349-.044-.495-.123zm18.953-.045c-.102-.067-.146-.146-.146-.247 0-.27.168-.438.505-.505.562-.124.944-.304 1.146-.506.202-.202.303-.562.303-1.056V30.546c0-.528-.09-.899-.281-1.112-.179-.203-.561-.382-1.123-.528-.348-.079-.528-.247-.528-.506 0-.112.045-.202.146-.27a.595.595 0 01.337-.1c.596 0 1.18.022 1.764.067.741.034 1.258.045 1.539.045.27 0 .831-.011 1.663-.045a50.658 50.658 0 011.853-.045c.292 0 .438.123.438.36a.417.417 0 01-.123.303c-.079.078-.202.134-.382.18-.641.18-1.067.381-1.281.606-.213.225-.314.584-.314 1.056v4.337c0 .224.123.337.382.337h6.369c.113 0 .191-.023.236-.068.045-.045.068-.135.068-.27v-4.336c0-.483-.101-.831-.304-1.056-.202-.225-.618-.427-1.269-.607a.98.98 0 01-.405-.18.382.382 0 01-.123-.303c0-.236.157-.36.46-.36.371 0 .989.012 1.854.046a46.27 46.27 0 001.719.045c.292 0 .786-.011 1.494-.045a21.73 21.73 0 011.741-.068.53.53 0 01.337.113c.101.067.146.157.146.247 0 .258-.168.427-.505.505-.573.147-.955.326-1.146.54-.191.213-.281.584-.281 1.1v10.931c0 .517.101.877.292 1.079.191.213.573.382 1.135.506.337.067.505.235.505.505 0 .101-.045.18-.146.247a.55.55 0 01-.314.101c-.528 0-1.09-.022-1.663-.067a40.21 40.21 0 00-1.64-.045c-.303 0-.865.011-1.663.045-.64.045-1.269.067-1.876.067-.292 0-.427-.123-.427-.36 0-.145.045-.246.124-.314.079-.067.202-.123.382-.168.629-.18 1.045-.371 1.269-.596.214-.213.326-.55.326-1v-4.504c0-.27-.09-.405-.292-.405h-6.437c-.225 0-.337.124-.337.382v4.505c0 .45.123.786.359 1.011.247.225.663.427 1.281.607.18.045.303.1.382.168.079.068.124.169.124.315 0 .247-.147.36-.439.36-.584 0-1.202-.023-1.853-.068a46.545 46.545 0 00-1.708-.045c-.528 0-1.09.022-1.662.067-.776.034-1.326.045-1.663.045a.524.524 0 01-.348-.09zm19.219-.247c0-.146.045-.258.146-.337.102-.079.236-.146.439-.191.977-.292 1.651-.831 1.999-1.618a201.149 201.149 0 004.202-10.616c.191-.528.337-.977.438-1.348.101-.37.157-.573.169-.607a16.096 16.096 0 001.64-.483c.438-.18.831-.46 1.179-.842a.434.434 0 01.191-.068c.101 0 .158.045.191.146.113.247.191.46.236.652 1.056 3.404 2.472 7.774 4.224 13.099.27.865.944 1.427 2 1.685.191.045.337.112.438.191a.37.37 0 01.146.315.32.32 0 01-.135.27c-.09.067-.202.09-.348.09l-1.831-.046a34.337 34.337 0 00-2.078-.067c-.304 0-.888.01-1.764.045-.899.033-1.517.045-1.854.045a.754.754 0 01-.371-.09c-.101-.056-.157-.135-.157-.259 0-.236.191-.404.573-.505.562-.113.977-.259 1.236-.427.258-.169.382-.393.382-.685 0-.068-.011-.18-.045-.337l-.438-1.73-.337-1.281c-.034-.124-.079-.225-.146-.281-.068-.056-.158-.079-.292-.079h-4.269a.364.364 0 00-.27.101c-.067.068-.112.169-.146.315-.438 1.314-.719 2.213-.843 2.674a1.787 1.787 0 00-.067.483c0 .326.124.584.359.775.248.19.641.36 1.202.483.382.079.573.247.573.506 0 .224-.179.337-.55.337l-1.303-.023a21.87 21.87 0 00-1.326-.045 9.49 9.49 0 00-.764.034 8.578 8.578 0 01-.618.034c-.449.044-.921.067-1.404.067-.393.011-.607-.124-.607-.382zm9.572-6.65c.236 0 .359-.057.359-.17a1.07 1.07 0 00-.045-.235l-1.617-5.449c-.045-.18-.09-.27-.146-.27-.012 0-.068.09-.169.27l-1.91 5.449a.405.405 0 00-.045.191c0 .146.147.213.439.213h3.134zm8.977 6.65c0-.09.034-.168.124-.213.079-.045.18-.09.292-.135.112-.045.202-.067.27-.09a2.25 2.25 0 001-.696c.269-.326.426-.72.494-1.203.292-2.246.595-5.55.921-9.886.011-.112.022-.381.022-.82 0-.528-.19-.898-.572-1.112-.45-.27-.899-.46-1.349-.55-.415-.113-.629-.281-.629-.506 0-.247.214-.36.652-.36l1.786.046c.304.01.697.033 1.169.045.471.01 1.011.022 1.628.022.113 0 .225.045.349.135.123.09.191.19.224.303.304.865.517 1.45.63 1.764l3.538 8.46c.034.067.079.1.135.112.056.01.101-.034.135-.113l3.449-8.01c.213-1.112.371-1.853.483-2.213.067-.213.191-.314.382-.314h1.033c.101 0 .798-.045 2.101-.146.775-.08 1.348-.124 1.741-.124.405 0 .607.124.607.36 0 .134-.045.224-.135.292-.09.067-.224.123-.427.19l-.674.293c-.449.224-.764.471-.955.719-.179.258-.258.64-.224 1.134.123 3.157.269 5.887.438 8.224l.146 2.314c.067.753.652 1.28 1.764 1.573.191.067.337.135.438.19.09.068.146.158.146.293a.305.305 0 01-.146.27.618.618 0 01-.36.1c-.595 0-1.247-.022-1.954-.067a50.473 50.473 0 00-1.764-.045c-.292 0-.82.011-1.595.045-.63.045-1.236.067-1.832.067a.705.705 0 01-.393-.1c-.101-.068-.157-.147-.157-.248 0-.258.191-.427.584-.505.596-.124 1-.304 1.236-.517.225-.213.326-.562.314-1.045a379.459 379.459 0 01-.168-4.853l-.146-3.83c0-.113-.023-.17-.068-.17-.067 0-.123.068-.168.192L153.85 43.78c-.067.19-.18.292-.337.292-.157 0-.281-.079-.36-.236a262.845 262.845 0 00-2.145-4.775c-1.315-2.887-2.213-4.943-2.697-6.145-.044-.112-.101-.168-.168-.168-.124 0-.213.112-.236.337-.112 1.606-.168 4.359-.168 8.246 0 .449.146.82.449 1.1.292.281.753.495 1.359.64.45.102.674.26.674.484 0 .112-.067.202-.191.27a.903.903 0 01-.415.1c-.495 0-.978-.01-1.427-.044a12.919 12.919 0 00-1.034-.045c-.325 0-1.011.022-2.078.067a6.998 6.998 0 01-.505.023c-.439-.012-.63-.135-.63-.36zm28.49.281a.31.31 0 01-.135-.247c0-.101.045-.191.135-.292a.784.784 0 01.393-.214c.584-.157.977-.337 1.191-.528.213-.19.326-.539.326-1.033V30.557c0-.528-.101-.899-.304-1.123-.202-.214-.595-.394-1.168-.517-.371-.068-.551-.236-.551-.506 0-.1.045-.18.147-.258a.62.62 0 01.359-.112c.55 0 1.157.033 1.831.1.146 0 .36.012.641.034.28.023.55.034.808.034.326 0 .776-.034 1.348-.101.922-.079 1.607-.124 2.079-.124 1.977 0 3.449.281 4.404.832.955.55 1.438 1.471 1.438 2.763 0 .483-.113.944-.326 1.382a3.32 3.32 0 01-.876 1.123 4.04 4.04 0 01-1.764.922c-.068.011-.101.056-.101.123 0 .068.033.101.101.124 1.123.247 2.044.64 2.775 1.202.719.562 1.089 1.46 1.089 2.696 0 .82-.135 1.494-.393 2.022-.27.528-.562.933-.91 1.202a6.88 6.88 0 01-1.236.776c-1.078.516-2.482.775-4.224.775-.337 0-.865-.012-1.572-.045a38.855 38.855 0 00-1.742-.045c-.528 0-1.101.022-1.707.067-.809.034-1.371.045-1.708.045a.447.447 0 01-.348-.101zm7.695-9.055c.326-.1.641-.27.955-.505.191-.157.371-.427.528-.787.157-.36.236-.831.236-1.415 0-1.011-.202-1.775-.607-2.28-.404-.506-1.033-.765-1.909-.765-.45 0-.776.079-.978.259-.202.168-.303.427-.303.764v4.021c0 .293.101.506.303.64.202.136.427.203.663.203.416.011.775-.034 1.112-.135zm.764 7.381a3.049 3.049 0 001.011-1.18 3.69 3.69 0 00.371-1.662c0-1.169-.404-2.1-1.202-2.775-.18-.146-.427-.27-.764-.37a3.872 3.872 0 00-1.146-.158c-.292 0-.55.067-.775.214-.225.146-.337.337-.337.572v4.247c0 1.033.483 1.539 1.472 1.539.494.011.943-.135 1.37-.427zm19.526 1.607c-.674-.383-1.281-.933-1.831-1.652a27.132 27.132 0 01-1.584-2.213c-.461-.72-.933-1.584-1.438-2.584-.158-.36-.382-.607-.652-.753a1.634 1.634 0 00-.82-.236c-.18 0-.27.158-.27.483v4.606c0 .495.135.854.393 1.079.27.225.742.416 1.438.55.18.034.304.09.394.158.089.067.134.18.134.325 0 .236-.157.36-.46.36-.607 0-1.27-.023-1.977-.067a50.473 50.473 0 00-1.764-.045c-.303 0-.876.01-1.708.045a25.26 25.26 0 01-1.808.067.593.593 0 01-.337-.101c-.102-.068-.147-.146-.147-.236 0-.27.169-.438.506-.506.629-.123 1.056-.303 1.281-.516.224-.214.337-.573.337-1.079v-10.83c0-.573-.09-.988-.281-1.213-.191-.236-.573-.404-1.168-.517-.371-.067-.551-.236-.551-.505 0-.101.045-.18.146-.258a.67.67 0 01.382-.113c.551 0 1.157.034 1.831.101.124 0 .326.012.607.034.269.022.55.034.82.034.303 0 .73-.034 1.281-.102a22.922 22.922 0 012.056-.123c1.898 0 3.347.326 4.347.977 1 .652 1.506 1.618 1.506 2.91 0 .977-.304 1.775-.888 2.382A5.341 5.341 0 01198 35.59c-.112.045-.123.146-.022.292a45.762 45.762 0 002.224 3.157 18.695 18.695 0 002.101 2.336c.461.45.955.73 1.483.854.517.124 1.157.18 1.887.18.236 0 .36.146.36.438 0 .494-.259.865-.787 1.112-.528.236-1.224.36-2.112.36-1.134.022-2.044-.169-2.718-.54zm-3.629-9.078c.472-.573.708-1.337.708-2.292 0-2.235-.888-3.347-2.651-3.347-.371 0-.63.146-.776.449-.146.303-.213.887-.213 1.775-.011.483-.023 1.618-.023 3.404 0 .326.079.55.225.685.157.135.382.203.685.203.888-.012 1.573-.304 2.045-.877zm11.346 9.168c-.123-.068-.191-.17-.191-.281 0-.236.236-.416.719-.506.596-.112 1.011-.326 1.27-.64.247-.315.371-.73.371-1.27V37.86c0-.494-.068-.921-.191-1.28a7.567 7.567 0 00-.551-1.158l-3.112-4.797a6.375 6.375 0 00-.831-1.09 2.222 2.222 0 00-1.045-.606 2.89 2.89 0 01-.449-.213c-.09-.068-.135-.169-.135-.315 0-.101.045-.18.146-.247a.615.615 0 01.359-.101c.663 0 1.304.022 1.933.067.202.011.517.034.921.045.404.011.753.022 1.067.022.495 0 .989-.022 1.472-.078.157-.011.393-.034.708-.045.314-.011.595-.023.831-.023.157 0 .303.034.449.102.135.067.203.146.203.247 0 .123-.068.236-.203.314a1.8 1.8 0 01-.494.191c-.461.113-.786.225-.966.349-.18.123-.27.314-.27.561 0 .236.09.528.27.843l2.483 4.269c.123.292.269.427.438.427.123 0 .269-.146.438-.427a58.224 58.224 0 002.123-4.056c.191-.348.292-.685.292-.988a.74.74 0 00-.382-.674 2.118 2.118 0 00-.921-.293 1.615 1.615 0 01-.505-.19c-.158-.102-.236-.214-.236-.338 0-.1.067-.168.202-.235.135-.057.303-.08.494-.08.303 0 .73.012 1.281.046.517.034.91.045 1.179.045.27 0 .506-.011.697-.023.191-.01.359-.033.506-.045a9.83 9.83 0 011.258-.09c.213 0 .382.034.516.09.135.068.203.158.203.292a.297.297 0 01-.169.281 4.285 4.285 0 01-.584.225c-.865.225-1.562.775-2.101 1.64-.528.854-.865 1.393-1.011 1.64a97.586 97.586 0 00-1.91 3.112 5.453 5.453 0 00-.505 1.124 4.04 4.04 0 00-.169 1.213v3.539c0 .584.113 1 .349 1.27.235.269.674.482 1.314.64.236.067.416.123.528.19a.314.314 0 01.168.293c0 .112-.056.202-.179.28a.812.812 0 01-.45.113 34.52 34.52 0 01-1.876-.09c-.236-.011-.505-.034-.797-.045-.292-.023-.596-.023-.922-.023-.303 0-.876.034-1.707.102a25.33 25.33 0 01-1.809.1c-.225 0-.393-.033-.517-.112zm10.123-.304c0-.146.045-.258.146-.337.101-.079.236-.146.438-.191.978-.292 1.652-.831 2-1.618a201.159 201.159 0 004.201-10.616c.191-.528.337-.977.439-1.348.101-.37.157-.573.168-.607a16.02 16.02 0 001.64-.483 3.27 3.27 0 001.18-.842.43.43 0 01.191-.068c.101 0 .157.045.191.146.112.247.191.46.236.652 1.056 3.404 2.471 7.774 4.224 13.099.269.865.943 1.427 1.999 1.685.191.045.337.112.439.191a.37.37 0 01.146.315.32.32 0 01-.135.27c-.09.067-.202.09-.348.09l-1.832-.046a34.285 34.285 0 00-2.078-.067c-.303 0-.887.01-1.764.045-.898.033-1.516.045-1.853.045a.754.754 0 01-.371-.09c-.101-.056-.157-.135-.157-.259 0-.236.191-.404.584-.505.562-.113.977-.259 1.236-.427.258-.169.382-.393.382-.685 0-.068-.012-.18-.045-.337l-.439-1.73-.337-1.281c-.033-.124-.078-.225-.146-.281-.067-.056-.157-.079-.292-.079h-4.269a.363.363 0 00-.269.101c-.068.068-.113.169-.146.315-.438 1.314-.719 2.213-.843 2.674a1.787 1.787 0 00-.067.483c0 .326.123.584.359.775.247.19.641.36 1.202.483.382.079.573.247.573.506 0 .224-.18.337-.55.337l-1.303-.023a21.87 21.87 0 00-1.326-.045 9.49 9.49 0 00-.764.034 8.578 8.578 0 01-.618.034c-.449.044-.921.067-1.393.067-.416.011-.629-.124-.629-.382zm9.583-6.65c.236 0 .359-.057.359-.17a1.07 1.07 0 00-.045-.235l-1.617-5.449c-.045-.18-.102-.27-.146-.27-.012 0-.068.09-.169.27l-1.91 5.449a.405.405 0 00-.045.191c0 .146.146.213.438.213h3.135zm23.501 6.954c-.471-.282-.921-.709-1.37-1.27a294.609 294.609 0 01-4.629-5.044l-4.651-5.01c-.157-.192-.269-.293-.314-.293-.113 0-.169.157-.169.483-.011.584-.011 1.37.012 2.36.022 1 .033 1.718.033 2.168.034 1.83.045 3.134.045 3.887 0 .516.157.92.472 1.224.315.303.798.528 1.438.674.449.101.674.259.674.483 0 .113-.056.203-.18.27a.853.853 0 01-.427.09c-.494 0-1.022-.012-1.572-.045a14.96 14.96 0 00-1.113-.045c-.483 0-.943.011-1.393.045-.449.033-.73.045-.842.045a.904.904 0 01-.382-.09c-.135-.068-.191-.146-.191-.247 0-.113.056-.203.157-.281.101-.068.259-.146.472-.225.741-.27 1.146-.932 1.236-1.977.123-1.19.247-2.629.348-4.325a86.82 86.82 0 00.157-5.168c0-.753-.179-1.326-.55-1.707-.371-.382-.921-.72-1.64-.99-.45-.123-.674-.302-.674-.527 0-.259.213-.382.629-.382.292 0 .921.011 1.876.045 1.741.045 2.674.067 2.797.067.191 0 .36.09.506.27.629.708 1.876 2.123 3.741 4.246a674.45 674.45 0 005.257 5.932c.157.213.292.315.382.315.135 0 .191-.124.191-.36l.023-3.37c0-1.753-.023-3.303-.068-4.651-.011-.416-.168-.741-.46-.966-.292-.225-.731-.405-1.326-.55-.438-.102-.652-.27-.652-.506 0-.101.057-.18.18-.236a.86.86 0 01.427-.101l2.337.022 1.112-.022c.517-.034 1-.045 1.472-.045a.86.86 0 01.438.1c.112.068.168.158.168.27 0 .236-.213.405-.629.484-.573.112-.988.27-1.213.483-.236.213-.36.55-.371 1.01 0 .72-.011 1.63-.045 2.72a333.454 333.454 0 00-.067 2.325c-.079 1.887-.124 3.415-.124 4.606 0 .607.068 1.382.191 2.314l.068.865c0 .72-.225 1.09-.674 1.09-.281-.034-.641-.18-1.113-.46zM59.596 69.966a8.432 8.432 0 01-3.247-2.864c-.809-1.236-1.213-2.63-1.213-4.213a7.3 7.3 0 011.258-4.157c.831-1.258 1.977-2.258 3.426-2.988 1.45-.73 3.045-1.101 4.775-1.101.82 0 1.539.056 2.145.169.607.112 1.337.292 2.191.528.202.067.36.157.472.28a.825.825 0 01.18.495c.1.932.168 1.865.213 2.797a.356.356 0 01-.135.28.469.469 0 01-.28.113c-.236 0-.394-.123-.461-.36a7.734 7.734 0 00-.54-1.493 2.93 2.93 0 00-.808-.967c-.787-.606-1.899-.92-3.326-.92-1.168 0-2.224.314-3.145.943a6.452 6.452 0 00-2.168 2.483 7.154 7.154 0 00-.787 3.303c0 1.37.248 2.64.753 3.83.506 1.191 1.236 2.146 2.168 2.854.944.719 2.034 1.078 3.292 1.078 1.135 0 2.09-.247 2.842-.752.753-.495 1.404-1.259 1.932-2.292.124-.225.293-.337.506-.337.09 0 .18.034.236.1.067.068.101.158.101.293 0 .225-.056.584-.18 1.09-.123.494-.258.966-.427 1.393a1.889 1.889 0 01-.27.438c-.078.078-.235.157-.46.247-.595.236-1.303.427-2.134.562a16 16 0 01-2.573.202c-1.54-.011-2.988-.348-4.336-1.034zm17.345 0a7.722 7.722 0 01-2.988-2.808c-.753-1.202-1.124-2.584-1.124-4.123a9.01 9.01 0 01.978-4.145c.651-1.281 1.606-2.315 2.864-3.101 1.259-.775 2.764-1.168 4.494-1.168a8.41 8.41 0 014.033 1 7.723 7.723 0 012.988 2.808c.753 1.202 1.124 2.584 1.124 4.123a9.011 9.011 0 01-.978 4.145c-.651 1.281-1.606 2.314-2.864 3.1-1.258.776-2.764 1.17-4.516 1.17a8.422 8.422 0 01-4.011-1zm8.167-1.673c.865-1.113 1.303-2.618 1.303-4.528 0-1.483-.213-2.83-.64-4.055-.427-1.225-1.056-2.202-1.91-2.932-.842-.73-1.876-1.101-3.1-1.101-1.63 0-2.865.55-3.73 1.651-.865 1.101-1.292 2.595-1.292 4.471 0 1.483.202 2.842.629 4.078.416 1.236 1.045 2.225 1.887 2.966.843.742 1.865 1.112 3.079 1.112 1.651 0 2.898-.55 3.774-1.662zm6.516 2.359c-.1-.068-.157-.135-.157-.214 0-.18.169-.326.506-.438.64-.146 1.1-.337 1.381-.584.281-.236.427-.607.427-1.112V57.182c0-.382-.045-.674-.123-.854a.875.875 0 00-.405-.427c-.19-.101-.516-.18-.966-.27-.472-.1-.696-.258-.696-.483 0-.202.213-.314.629-.314.438 0 .977.022 1.618.045.584.034 1.033.045 1.348.045l1.539-.023a36.96 36.96 0 011.685-.045c.404 0 .606.102.606.292 0 .225-.236.382-.696.483-.719.158-1.236.326-1.528.506-.292.18-.45.483-.45.91v11.167c0 .494.113.854.349 1.078.236.214.674.326 1.314.326h2.798c.382 0 .73-.056 1.044-.18a2.78 2.78 0 00.787-.45c.292-.269.517-.527.696-.785.18-.248.36-.585.551-1 .135-.259.236-.45.314-.562.079-.124.169-.18.27-.18s.169.045.225.146a.64.64 0 01.09.315c0 .045-.012.09-.023.135a.574.574 0 00-.022.135 40.107 40.107 0 00-.472 1.797c-.09.393-.157.831-.202 1.314-.034.292-.158.439-.36.439-.831 0-2.224-.012-4.145-.046a130.807 130.807 0 00-4.146-.067c-.752 0-1.617.034-2.584.101l-.752.023c-.191 0-.349-.034-.45-.101zm14.704 0c-.101-.068-.157-.135-.157-.214 0-.18.169-.326.506-.438.64-.146 1.101-.337 1.382-.584.28-.236.426-.607.426-1.112V57.182c0-.382-.044-.674-.123-.854a.878.878 0 00-.405-.427c-.191-.101-.516-.18-.966-.27-.46-.1-.696-.258-.696-.483 0-.202.202-.314.629-.314.438 0 .966.022 1.618.045.573.034 1.022.045 1.348.045l1.55-.023a35.937 35.937 0 011.685-.045c.405 0 .607.102.607.292 0 .225-.236.382-.697.483-.719.158-1.235.326-1.528.506-.292.18-.449.483-.449.91v11.167c0 .494.112.854.348 1.078.236.214.674.326 1.315.326h2.797a2.836 2.836 0 001.831-.63 4.35 4.35 0 00.697-.785c.179-.248.359-.585.55-1 .135-.259.236-.45.315-.562.078-.124.168-.18.269-.18.09 0 .169.045.225.146a.625.625 0 01.079.315c0 .045-.012.09-.023.135-.011.045-.022.09-.022.135a40.107 40.107 0 00-.472 1.797c-.09.393-.157.831-.202 1.314-.034.292-.158.439-.36.439-.831 0-2.213-.012-4.145-.046a130.873 130.873 0 00-4.146-.067c-.752 0-1.617.034-2.583.101l-.753.023a.863.863 0 01-.45-.101zm14.707-.192c0-.213.236-.359.697-.46.606-.124 1.044-.314 1.303-.562.258-.247.382-.64.382-1.168V57.373c0-.55-.113-.932-.337-1.168-.225-.236-.641-.416-1.236-.54-.461-.1-.697-.258-.697-.483 0-.1.057-.168.169-.224.112-.057.27-.08.461-.08.561 0 1.258.012 2.1.046.809.034 1.45.045 1.933.045 1.078 0 2.404-.011 3.977-.045.528 0 .988-.011 1.359-.034.371-.022.584-.034.64-.034.113 0 .214.023.315.068.09.045.146.123.168.213l.124.72c.18.92.269 1.572.269 1.977 0 .146-.033.247-.112.314s-.146.101-.225.101c-.146 0-.258-.1-.337-.292-.022-.067-.067-.225-.157-.472a4.902 4.902 0 00-.258-.618 1.932 1.932 0 00-.236-.382c-.438-.449-.978-.674-1.64-.674H127c-.224 0-.449.09-.674.259-.224.168-.337.37-.337.618v4.92c0 .158.045.292.146.382a.46.46 0 00.36.146h2.269c.427 0 .742-.1.921-.292.18-.19.349-.517.472-.989.113-.325.27-.483.461-.483a.27.27 0 01.213.124.477.477 0 01.101.315c-.067.898-.101 1.483-.101 1.763 0 .596.023 1.225.079 1.91v.101c0 .259-.079.382-.214.382-.258 0-.449-.236-.572-.696-.113-.438-.259-.753-.427-.955-.169-.202-.405-.303-.708-.303h-2.247c-.27 0-.472.044-.573.134-.112.09-.168.259-.168.495v4.606c0 .55.112.932.348 1.157.236.224.606.337 1.123.337h1.91c.933 0 1.618-.157 2.045-.46.258-.18.494-.416.696-.697.202-.292.438-.686.674-1.18.124-.213.27-.303.416-.292.18 0 .27.135.27.382 0 .258-.079.674-.236 1.27a20.337 20.337 0 01-.506 1.628c-.112.259-.247.382-.404.382a103.9 103.9 0 01-3.618-.067c-.438-.011-.988-.034-1.674-.045-.685-.011-1.471-.022-2.37-.022-.449 0-.91.022-1.371.067-.921.045-1.449.067-1.595.067-.472-.022-.674-.123-.674-.314zm18.703-.516c-1.292-.685-2.314-1.618-3.078-2.82-.764-1.202-1.146-2.539-1.146-4.01 0-1.528.393-2.932 1.179-4.236.787-1.292 1.865-2.325 3.247-3.09 1.371-.763 2.887-1.145 4.55-1.145.595 0 1.449.09 2.573.28 1.112.18 1.864.36 2.258.54.101.034.168.079.202.135a.733.733 0 01.112.247c.157 1.348.236 2.236.236 2.651a.534.534 0 01-.112.337.301.301 0 01-.259.146c-.157 0-.28-.044-.359-.146a1.717 1.717 0 01-.236-.46c-.247-.584-.539-1.067-.899-1.472-.269-.303-.708-.584-1.303-.843-.595-.258-1.337-.381-2.247-.381-1.168 0-2.213.325-3.123.966-.91.64-1.606 1.494-2.101 2.572a8.149 8.149 0 00-.741 3.46c0 1.46.258 2.742.775 3.843.517 1.1 1.213 1.943 2.09 2.538a5.123 5.123 0 002.909.877c1.09 0 1.921-.259 2.483-.775.191-.18.348-.427.483-.73a2.75 2.75 0 00.191-1.023c0-.326.011-.584.023-.798l.022-.82c0-.404-.09-.663-.27-.775-.191-.18-.505-.326-.955-.45a4.972 4.972 0 00-1.123-.201.731.731 0 01-.348-.158c-.124-.09-.18-.19-.18-.303 0-.101.056-.18.18-.27.123-.078.224-.123.326-.123.382 0 .921.011 1.595.045a36.96 36.96 0 001.685.045c.27 0 .663-.012 1.18-.045.516-.034.932-.045 1.258-.045a.63.63 0 01.303.09.326.326 0 01.157.292.368.368 0 01-.157.292.995.995 0 01-.326.168c-.37.113-.64.259-.797.427-.158.169-.259.427-.315.764-.079.573-.123 1.18-.123 1.809v.696c0 .102.022.18.078.248.056.078.09.123.113.157.033.045.089.123.168.213.079.101.124.18.124.236 0 .27-.124.427-.382.46-.146.035-.371.124-.674.293-.776.37-1.562.674-2.36.932-.808.248-1.707.371-2.729.371a8.616 8.616 0 01-4.157-1.011zm13.707.516c0-.213.236-.359.696-.46.607-.124 1.045-.314 1.303-.562.259-.247.382-.64.382-1.168V57.373c0-.55-.112-.932-.337-1.168-.224-.236-.64-.416-1.235-.54-.472-.1-.697-.258-.697-.483 0-.1.056-.168.169-.224.112-.057.269-.08.46-.08.562 0 1.258.012 2.101.046.809.034 1.449.045 1.932.045a184 184 0 003.977-.045c.528 0 .989-.011 1.36-.034.381-.022.595-.034.64-.034.112 0 .213.023.314.068.09.045.146.123.169.213l.124.72c.179.92.269 1.572.269 1.977 0 .146-.034.247-.112.314-.079.067-.146.101-.225.101-.146 0-.258-.1-.337-.292a4.134 4.134 0 00-.157-.472 4.891 4.891 0 00-.259-.618 1.843 1.843 0 00-.236-.382c-.438-.449-.977-.674-1.64-.674h-2.696c-.225 0-.449.09-.674.259-.225.168-.337.37-.337.618v4.92c0 .158.045.292.146.382a.46.46 0 00.36.146h2.269c.438 0 .741-.1.932-.292.18-.19.337-.517.472-.989.112-.325.259-.483.461-.483a.27.27 0 01.213.124.477.477 0 01.101.315c-.067.898-.101 1.483-.101 1.763 0 .596.023 1.225.068 1.91v.101c0 .259-.068.382-.214.382-.258 0-.449-.236-.584-.696-.112-.438-.258-.753-.427-.955-.168-.202-.404-.303-.708-.303h-2.247c-.269 0-.471.044-.572.134-.113.09-.169.259-.169.495v4.606c0 .55.112.932.348 1.157.236.224.607.337 1.124.337h1.91c.932 0 1.617-.157 2.044-.46a2.93 2.93 0 00.697-.697c.202-.292.438-.686.674-1.18.123-.213.269-.303.415-.292.18 0 .27.135.27.382 0 .258-.079.674-.236 1.27a20.349 20.349 0 01-.505 1.628c-.113.259-.248.382-.405.382-1.123 0-2.337-.022-3.617-.067-.438-.011-.989-.034-1.674-.045a141.1 141.1 0 00-2.371-.022c-.449 0-.91.022-1.37.067-.921.045-1.449.067-1.595.067-.461-.022-.663-.123-.663-.314z"></path>
	</symbol>
	<symbol xmlns="http://www.w3.org/2000/svg" viewBox="0 0 228 42" id="logo-he">
		<path d="M33.01 33.1c9.71-9.93 2.35-20.26-.43-24.4A15.53 15.53 0 0130.09 0c-10.1 21.72 2.92 33.1 2.92 33.1zM1.56 39.12c-.52.75-1 1.55-1.56 2.4h.05a12.07 12.07 0 018-3.39c5.76-.44 13.93 5.92 21.12-6.27 0 0-14.74-11.16-27.6 7.2"></path>
		<path d="M9.53 22.68c5.78 4.91 15.36 3.88 16.19 4.11 1.18-7.75-9.34-14.2-13.23-16.64A14.54 14.54 0 017.08 3.6C5.44 6.85 3.74 17.78 9.53 22.68zM59.2 3.87v11.26a6.302 6.302 0 01-1.73 4.68 6.651 6.651 0 01-4.88 1.71 5.89 5.89 0 01-6.48-6.44V3.87h1.41v11.21a5.28 5.28 0 001.32 3.87 6.19 6.19 0 007.64 0 5.068 5.068 0 001.33-3.72V3.87h1.39zm9.97 4.19a4.62 4.62 0 013.38 1.15 4.82 4.82 0 011.17 3.58v8.48h-1.39v-8.38a3.81 3.81 0 00-.84-2.73 3.241 3.241 0 00-2.47-.88c-2.86 0-4.29 1.64-4.29 4.92v7.07h-1.37v-13h1.13l.19 2.24h.1a4.24 4.24 0 011.62-1.78 5.06 5.06 0 012.77-.71m9.36 13.25h-1.37v-13h1.37v13zM77.84 3.5c.65 0 1 .35 1 1.05 0 .7-.33 1.08-1 1.08-.67 0-.92-.36-.92-1.08 0-.72.3-1.05.92-1.05zm8.05 17.77l-5-13h1.47l3.21 8.6c.21.54.4 1.06.58 1.58.18.52.3 1 .4 1.39h.1a35.22 35.22 0 01.97-2.97l3.22-8.6h1.48l-5 13h-1.43zM99.15 9.23a3.75 3.75 0 00-2.89 1.2 5.52 5.52 0 00-1.31 3.36h7.78a5.75 5.75 0 00-.87-3.31 3.003 3.003 0 00-2.71-1.27v.02zm0-1.19a4.841 4.841 0 012.78.77 4.706 4.706 0 011.68 2.11c.386.977.577 2.02.56 3.07v1h-9.26a5.87 5.87 0 001.19 3.94 4.3 4.3 0 003.44 1.38c.712.008 1.422-.059 2.12-.2a9.446 9.446 0 002-.68v1.27a9.348 9.348 0 01-1.92.63c-.731.14-1.475.208-2.22.2a5.638 5.638 0 01-4.47-1.74 7.1 7.1 0 01-1.56-4.85 8.7 8.7 0 01.67-3.52 5.54 5.54 0 011.94-2.43 5.22 5.22 0 013.07-.88m13.6-.02a5.998 5.998 0 011.75.22l-.19 1.26a7.098 7.098 0 00-1.61-.19 3.434 3.434 0 00-2.84 1.3 5.438 5.438 0 00-1 3.48v7.11h-1.39v-13h1.16l.14 2.43h.08a4.815 4.815 0 011.47-1.87 3.82 3.82 0 012.45-.78m12.38 9.687a3.196 3.196 0 01-1.31 2.73 6.27 6.27 0 01-3.72 1 10.174 10.174 0 01-2.4-.25 8.232 8.232 0 01-1.74-.58v-1.34c.622.31 1.276.551 1.95.72a9.35 9.35 0 002.24.28 4.63 4.63 0 002.76-.65 2.087 2.087 0 00.85-1.77 1.838 1.838 0 00-.89-1.64 12.461 12.461 0 00-2.67-1.18c-.79-.28-1.5-.56-2.11-.83a3.624 3.624 0 01-1.42-1.09 2.9 2.9 0 01-.51-1.81 2.803 2.803 0 011.26-2.44 5.84 5.84 0 013.39-.88 9.998 9.998 0 012.18.23c.628.143 1.244.337 1.84.58l-.48 1.14a9.539 9.539 0 00-1.71-.56 8.79 8.79 0 00-1.9-.22 4.48 4.48 0 00-2.39.54 1.936 1.936 0 00-.827 1.3 1.942 1.942 0 00.387 1.491c.341.34.75.606 1.2.78.52.22 1.15.46 1.9.72.709.235 1.404.512 2.08.83a3.99 3.99 0 011.49 1.12c.388.528.583 1.174.55 1.83m4.17 3.482h-1.36v-13h1.36v13zm-.69-17.77c.65 0 1 .35 1 1.05 0 .7-.33 1.08-1 1.08-.67 0-.92-.36-.92-1.08 0-.72.3-1.05.92-1.05zm8.4 16.85c.335-.001.67-.031 1-.09.286-.044.567-.114.84-.21v1.13c-.298.1-.602.18-.91.24a6.83 6.83 0 01-1.16.1 3.31 3.31 0 01-2.49-.92 4.152 4.152 0 01-.87-2.93V9.43h-1.93v-.78l1.93-.44.48-3h.88v3.1h4v1.12h-4v8.19c0 1.82.73 2.73 2.2 2.73m2.27-12.04h1.48l3.1 8.06c.26.72.49 1.36.68 1.92.19.56.35 1.06.47 1.5h.07c.11-.38.27-.86.46-1.44s.42-1.24.68-1.95l3-8.09h1.48l-5.85 15.28a7.916 7.916 0 01-1.56 2.64 3.188 3.188 0 01-2.43.94 4.4 4.4 0 01-.86-.07l-.7-.17v-1.14c.448.148.918.222 1.39.22a2.235 2.235 0 001.66-.64 5.217 5.217 0 001.14-1.92l.85-2.2-5.06-12.94zm27.13-3.42a6.768 6.768 0 00-3.69 1 6.274 6.274 0 00-2.35 2.68 9.29 9.29 0 00-.81 4 10.2 10.2 0 00.74 4.07 5.868 5.868 0 002.21 2.68 6.581 6.581 0 003.65.95 12.89 12.89 0 002.33-.2 18.483 18.483 0 002-.48v1.2c-.65.235-1.319.412-2 .53a14.13 14.13 0 01-2.49.2 8.1 8.1 0 01-4.4-1.12 6.92 6.92 0 01-2.66-3.15 11.71 11.71 0 01-.89-4.73 10.26 10.26 0 011-4.59 7.453 7.453 0 012.85-3.16 8.45 8.45 0 014.5-1.14 10.43 10.43 0 014.58 1l-.56 1.22a9.001 9.001 0 00-4-.93m12.12 4.31a3.76 3.76 0 00-2.89 1.2 5.57 5.57 0 00-1.3 3.38h7.78a5.75 5.75 0 00-.87-3.31 3.045 3.045 0 00-2.72-1.27zm0-1.17a4.841 4.841 0 012.78.77 4.77 4.77 0 011.68 2.11c.386.977.577 2.02.56 3.07v1h-9.26a5.824 5.824 0 001.19 3.94 4.293 4.293 0 003.44 1.38c.712.008 1.422-.059 2.12-.2a9.446 9.446 0 002-.68v1.27a9.348 9.348 0 01-1.92.63 11.25 11.25 0 01-2.22.2 5.63 5.63 0 01-4.46-1.78 7.1 7.1 0 01-1.56-4.85 8.709 8.709 0 01.67-3.52 5.54 5.54 0 011.94-2.43 5.201 5.201 0 013.07-.88m13.6-.03a4.62 4.62 0 013.39 1.15 4.825 4.825 0 011.17 3.58v8.48h-1.39v-8.38a3.81 3.81 0 00-.84-2.73 3.277 3.277 0 00-2.48-.88c-2.86 0-4.29 1.64-4.29 4.92v7.07h-1.36v-13h1.12l.19 2.24h.1a4.24 4.24 0 011.62-1.78 5.061 5.061 0 012.77-.71m12.14 12.33c.335-.001.67-.031 1-.09.286-.041.568-.112.84-.21v1.13c-.298.1-.602.18-.91.24a6.83 6.83 0 01-1.16.1 3.27 3.27 0 01-2.48-.92 4.11 4.11 0 01-.88-2.93V9.43h-1.93v-.78l1.93-.44.49-3h.87v3.1h4v1.12h-4v8.19c0 1.82.73 2.73 2.2 2.73m9.73-12.26a5.998 5.998 0 011.75.22l-.19 1.26a7.098 7.098 0 00-1.61-.19 3.434 3.434 0 00-2.84 1.3 5.438 5.438 0 00-1 3.48v7.11h-1.39v-13h1.17l.15 2.43h.07a4.935 4.935 0 011.48-1.87 3.82 3.82 0 012.45-.78m8.41 1.18a3.74 3.74 0 00-2.88 1.2 5.52 5.52 0 00-1.31 3.38h7.78a5.75 5.75 0 00-.87-3.31 2.998 2.998 0 00-2.72-1.27zm0-1.17a4.841 4.841 0 012.78.77 4.706 4.706 0 011.68 2.11c.386.977.577 2.02.56 3.07v1h-9.26a5.87 5.87 0 001.19 3.94 4.293 4.293 0 003.44 1.38c.712.008 1.422-.059 2.12-.2a9.446 9.446 0 002-.68v1.27a9.348 9.348 0 01-1.92.63 11.25 11.25 0 01-2.22.2 5.64 5.64 0 01-4.46-1.78 7.1 7.1 0 01-1.56-4.85 8.709 8.709 0 01.67-3.52 5.54 5.54 0 011.94-2.43 5.22 5.22 0 013.07-.88M50.83 36.02c.14 0 .21-.03.21-.09a.697.697 0 000-.14l-.91-3.07c0-.1 0-.15-.08-.15s0 .05-.1.15l-1.1 3.07a.23.23 0 000 .11c0 .08.09.12.25.12h1.73zm-5.39 3.77a.26.26 0 01.08-.19.842.842 0 01.25-.11 1.62 1.62 0 001.12-.91 99.689 99.689 0 002.37-6c.093-.25.173-.503.24-.76.06-.21.09-.33.1-.34.33-.09.64-.18.92-.28a1.78 1.78 0 00.67-.47.19.19 0 01.11 0 .12.12 0 01.11.08c.054.12.097.243.13.37.6 1.92 1.39 4.37 2.38 7.37a1.401 1.401 0 001.13.95.77.77 0 01.24.11.22.22 0 01.08.18.18.18 0 01-.07.15.39.39 0 01-.2.05h-4.17a.459.459 0 01-.21-.05.15.15 0 01-.09-.14c0-.14.11-.23.33-.29.242-.034.476-.112.69-.23a.45.45 0 00.22-.39.989.989 0 000-.19l-.24-1-.19-.72a.48.48 0 00-.08-.16.27.27 0 00-.17 0h-2.54a.21.21 0 00-.15 0 .38.38 0 00-.08.18c-.25.74-.41 1.24-.48 1.51a.843.843 0 000 .27.54.54 0 00.2.43c.205.136.437.228.68.27.22.05.33.14.33.29 0 .15-.1.19-.31.19h-2.26a6.631 6.631 0 01-.79 0c-.23 0-.35-.07-.35-.22m11.01-.2a.67.67 0 01-.29-.32 4.342 4.342 0 01-.18-.89c-.03-.36-.03-.72 0-1.08 0-.12.09-.18.27-.18a.34.34 0 01.17 0 .359.359 0 01.11.13c.157.62.466 1.19.9 1.66a1.85 1.85 0 001.37.61 1.16 1.16 0 00.94-.4 1.37 1.37 0 00.35-.92 1.41 1.41 0 00-.16-.71 1.82 1.82 0 00-.48-.53 6.572 6.572 0 00-.91-.56c-.51-.29-.92-.55-1.22-.76a3 3 0 01-.77-.85 2.52 2.52 0 01.1-2.62 2.58 2.58 0 011.13-.92 3.841 3.841 0 011.62-.33 5.12 5.12 0 011.74.33.57.57 0 01.23.15.61.61 0 01.13.28 6.62 6.62 0 01.17 1.59.15.15 0 01-.07.12.28.28 0 01-.18.06.4.4 0 01-.22-.06.28.28 0 01-.13-.16 2.769 2.769 0 00-.68-1.24 1.56 1.56 0 00-1.1-.42 1.15 1.15 0 00-.83 2.05 8.76 8.76 0 001.4 1 5.18 5.18 0 011.55 1.29c.31.449.468.985.45 1.53a2.45 2.45 0 01-.87 2.05 3.73 3.73 0 01-2.37.68 4 4 0 01-2.14-.57m6.55.39c-.08 0-.12-.1-.12-.17s.12-.24.36-.28a1.33 1.33 0 00.67-.27.93.93 0 00.17-.63v-6.15a.83.83 0 00-.19-.63 1.65 1.65 0 00-.72-.3c-.19 0-.29-.14-.29-.28a.189.189 0 01.08-.15.33.33 0 01.19-.06h3.88c.16 0 .24.06.24.19a.21.21 0 01-.07.18.45.45 0 01-.23.1 1.45 1.45 0 00-.69.34.88.88 0 00-.16.6v2.76c0 .14 0 .22.13.22s.18-.08.34-.22l2.61-2.81c.17-.19.26-.33.26-.42 0-.09-.19-.33-.56-.41-.2-.06-.3-.16-.3-.3a.16.16 0 01.09-.14.411.411 0 01.18 0h3.63a.7.7 0 01.25.05c.07 0 .1.08.1.14a.21.21 0 01-.12.18.63.63 0 01-.28.1 4.28 4.28 0 00-2.1.85c-.25.2-.52.43-.8.69-.28.26-.55.52-.81.79l-.74.72a.26.26 0 00-.09.17.4.4 0 00.11.23l3.25 3.65a4.2 4.2 0 00.61.55c.24.152.504.263.78.33.11.027.217.064.32.11a.18.18 0 01.11.16.2.2 0 01-.14.17 1 1 0 01-.38.06h-1.2c-.54 0-.95-.05-1.23-.05h-.82a8.28 8.28 0 01-.88 0 .31.31 0 01-.19-.06.16.16 0 01-.08-.14c0-.14.09-.24.27-.29.36-.067.55-.187.57-.36a.93.93 0 00-.23-.45l-2.16-2.62a.469.469 0 00-.32-.22c-.08 0-.12.08-.12.22v2.47a1.18 1.18 0 00.16.61 1.2 1.2 0 00.63.32.88.88 0 01.27.11.17.17 0 01.053.257.19.19 0 01-.083.063.6.6 0 01-.27.06c-.24 0-.62 0-1.14-.07h-.68c-.16 0-.4 0-.72.05a8.083 8.083 0 01-1.16.08.62.62 0 01-.26-.06m10.7-.07a.17.17 0 01-.06-.12c0-.15.1-.25.29-.28a1.27 1.27 0 00.64-.29.88.88 0 00.17-.6v-6.16a1 1 0 00-.15-.63 1.4 1.4 0 00-.64-.3c-.2 0-.3-.14-.3-.28a.16.16 0 01.09-.15.29.29 0 01.19-.06h3.85c.16 0 .25.06.25.2a.238.238 0 01-.07.17.5.5 0 01-.22.1 1.71 1.71 0 00-.72.34.86.86 0 00-.18.6v2.45c0 .12.08.19.22.19h3.58a.201.201 0 00.13 0 .21.21 0 000-.15v-2.45a.86.86 0 00-.17-.6 1.59 1.59 0 00-.71-.34.49.49 0 01-.23-.1.21.21 0 01-.07-.17c0-.14.09-.2.26-.2h3.84a.31.31 0 01.19.06.18.18 0 01.08.15c0 .14-.09.24-.28.28a1.39 1.39 0 00-.65.31 1 1 0 00-.15.62v6.15a.89.89 0 00.16.61c.18.157.403.258.64.29.19 0 .28.13.28.28a.15.15 0 01-.08.14.34.34 0 01-.17.05h-3.86c-.17 0-.25-.07-.25-.2a.21.21 0 01.07-.18.996.996 0 01.22-.09 1.73 1.73 0 00.71-.33.81.81 0 00.18-.57v-2.54c0-.15 0-.23-.16-.23H77c-.12 0-.19.07-.19.22v2.54a.74.74 0 00.21.57c.213.164.458.28.72.34a.719.719 0 01.21.09.21.21 0 01.07.18c0 .13-.08.2-.24.2h-3.93a.41.41 0 01-.19-.05m16.27-3.95c.14 0 .21-.03.21-.09a.697.697 0 000-.14l-.91-3.07c0-.1-.05-.15-.08-.15s0 .05-.1.15l-1.1 3.07a.23.23 0 000 .11c0 .08.08.12.25.12h1.73zm-5.39 3.77a.26.26 0 01.08-.19.843.843 0 01.25-.11 1.638 1.638 0 001.12-.91 99.689 99.689 0 002.37-6c.111-.258.208-.522.29-.79.06-.21.09-.33.1-.34.33-.09.64-.18.92-.28a1.78 1.78 0 00.67-.47.19.19 0 01.11 0 .1.1 0 01.1.08c.06.118.108.242.14.37.6 1.92 1.39 4.37 2.38 7.37a1.401 1.401 0 001.13.95.77.77 0 01.24.11.25.25 0 01.08.18.18.18 0 01-.07.15.39.39 0 01-.2.05h-4.22a.46.46 0 01-.21-.05.15.15 0 01-.17-.12c0-.14.11-.23.33-.29.242-.034.476-.112.69-.23a.45.45 0 00.22-.39.989.989 0 000-.19l-.24-1-.19-.72a.48.48 0 00-.08-.16.29.29 0 00-.17 0h-2.4a.21.21 0 00-.15 0 .3.3 0 00-.08.18c-.25.74-.41 1.24-.48 1.51a.843.843 0 000 .27.541.541 0 00.2.43c.205.136.437.228.68.27.22.05.33.14.33.29 0 .15-.11.19-.31.19h-2.26a6.631 6.631 0 01-.79 0c-.23 0-.35-.07-.35-.22m10.39.06a.14.14 0 01.06-.12l.17-.07a.651.651 0 01.15-.05 1.24 1.24 0 00.56-.4 1.31 1.31 0 00.28-.68c.16-1.26.333-3.117.52-5.57v-.46a.64.64 0 00-.33-.62 2.14 2.14 0 00-.76-.31c-.23-.07-.35-.16-.35-.29 0-.13.12-.2.37-.2h2.58a.31.31 0 01.19.08c.06.041.106.1.13.17.167.493.287.827.36 1l2 4.77a.093.093 0 00.031.042c.014.01.031.017.049.018l.07-.06 1.95-4.51c.064-.422.154-.84.27-1.25a.211.211 0 01.21-.18h.59c.05 0 .45 0 1.18-.08.44 0 .76-.07 1-.07s.34.07.34.21a.187.187 0 01-.08.16 1.005 1.005 0 01-.23.11l-.38.16c-.212.089-.397.23-.54.41a.934.934 0 00-.13.64c.07 1.77.15 3.32.24 4.63l.09 1.3c0 .43.36.72 1 .89.087.02.168.058.24.11a.161.161 0 01.08.16.17.17 0 01-.08.15.39.39 0 01-.2.05h-4a.521.521 0 01-.23-.05.15.15 0 01-.08-.14c0-.14.1-.24.32-.28a1.4 1.4 0 00.69-.29.76.76 0 00.18-.6c0-.567-.03-1.477-.09-2.73l-.09-2.16v-.09s-.06 0-.09.11l-2.6 6.17a.201.201 0 01-.19.16.213.213 0 01-.2-.14c-.33-.75-.73-1.65-1.21-2.69-.74-1.63-1.25-2.78-1.52-3.46 0-.06-.06-.1-.1-.1-.04 0-.11.07-.13.19-.07.91-.1 2.46-.1 4.65a.85.85 0 00.25.62c.222.184.487.308.77.36.25.05.38.14.38.27a.16.16 0 01-.11.15.59.59 0 01-.23.05H95.4c-.21 0-.32-.06-.32-.19m20.73-.75a1.78 1.78 0 00.57-.67c.143-.292.215-.614.21-.94a1.933 1.933 0 00-.68-1.56 1.316 1.316 0 00-.43-.21 2.13 2.13 0 00-.65-.09.8.8 0 00-.43.12.371.371 0 00-.19.33v2.39c0 .58.28.87.83.87.275 0 .543-.084.77-.24zm-.44-4.16a1.57 1.57 0 00.54-.29c.134-.12.237-.271.3-.44.096-.252.14-.52.13-.79a1.996 1.996 0 00-.34-1.29 1.275 1.275 0 00-1.07-.42.82.82 0 00-.55.14.52.52 0 00-.17.42v2.27a.393.393 0 00.17.36c.108.078.237.12.37.12a2.36 2.36 0 00.62-.08zm-4.33 5.1a.19.19 0 01-.08-.14.268.268 0 01.08-.17.51.51 0 01.22-.12 1.69 1.69 0 00.67-.3.727.727 0 00.19-.58v-6.18a.93.93 0 00-.17-.63 1.352 1.352 0 00-.66-.3c-.21 0-.31-.13-.31-.28a.15.15 0 01.08-.14.32.32 0 01.2-.07c.334.003.668.023 1 .06h.82c.18 0 .43 0 .76-.05.52 0 .91-.07 1.17-.07a5 5 0 012.48.47 1.646 1.646 0 01.81 1.55 1.909 1.909 0 01-.68 1.41c-.281.26-.626.439-1 .52a.07.07 0 00-.043.024.071.071 0 00.043.116c.566.103 1.1.336 1.56.68a1.81 1.81 0 01.61 1.52 2.53 2.53 0 01-.23 1.14c-.115.26-.285.493-.5.68a4.2 4.2 0 01-.7.43 5.53 5.53 0 01-2.38.44h-3.88a.29.29 0 01-.19-.06m13.85-5.09c.284-.368.426-.826.4-1.29 0-1.26-.5-1.89-1.49-1.89a.448.448 0 00-.44.26 2.647 2.647 0 00-.12 1v1.92a.54.54 0 00.13.39.62.62 0 00.39.11 1.387 1.387 0 001.15-.49l-.02-.01zm2.02 5.13a3.318 3.318 0 01-1-.93c-.33-.43-.63-.84-.89-1.25-.296-.472-.567-.96-.81-1.46a.886.886 0 00-.83-.55c-.1 0-.15.09-.15.27v2.59a.782.782 0 00.23.62c.244.161.521.267.81.31.08.012.155.043.22.09a.225.225 0 01.08.18c0 .14-.09.2-.26.2h-4.12a.38.38 0 01-.19-.05.15.15 0 01-.08-.14c0-.15.09-.25.28-.28.261-.034.509-.134.72-.29a.842.842 0 00.19-.61v-6.1a1.162 1.162 0 00-.15-.68 1.13 1.13 0 00-.66-.3c-.21 0-.32-.13-.32-.28a.171.171 0 01.025-.083.165.165 0 01.065-.057.28.28 0 01.21-.07c.334.003.668.023 1 .06h.8c.241-.006.481-.026.72-.06.47 0 .85-.06 1.15-.06a4.47 4.47 0 012.45.55 1.994 1.994 0 01.859 1.42 2 2 0 01-.509 1.58 3.003 3.003 0 01-1.24.76c-.06 0-.06.08 0 .16.45.69.87 1.28 1.25 1.78.357.47.752.912 1.18 1.32.232.232.522.397.84.48.348.074.704.107 1.06.1.14 0 .21.09.21.25a.655.655 0 01-.44.62 2.82 2.82 0 01-1.19.21 3.21 3.21 0 01-1.54-.32m4.4.04a.186.186 0 01-.076-.06.184.184 0 01-.034-.09c0-.14.14-.23.41-.29a1.09 1.09 0 00.71-.36c.149-.206.223-.456.21-.71v-1.88a2.196 2.196 0 00-.1-.72 4.772 4.772 0 00-.32-.65l-1.75-2.7a3.142 3.142 0 00-.47-.61 1.172 1.172 0 00-.59-.34 1.08 1.08 0 01-.25-.13.187.187 0 01-.062-.074.186.186 0 01-.018-.096.161.161 0 01.025-.083.166.166 0 01.065-.057.39.39 0 01.2-.05h2.2c.276.015.554.015.83 0h.87a.7.7 0 01.25.05c.08 0 .12.08.12.14a.19.19 0 01-.12.17.776.776 0 01-.28.11 1.93 1.93 0 00-.54.2.36.36 0 00-.15.32c.01.167.062.328.15.47l1.4 2.41c.067.16.147.24.24.24.08 0 .16-.08.25-.24.4-.69.79-1.45 1.19-2.28.102-.17.161-.362.17-.56a.444.444 0 00-.22-.38 1.1 1.1 0 00-.52-.16 1.002 1.002 0 01-.28-.11c-.09-.06-.14-.12-.14-.19s0-.1.12-.13a.72.72 0 01.27-.05h2.78a.84.84 0 01.29 0c.032.016.059.04.078.07.019.03.03.064.032.1a.162.162 0 01-.09.15c-.104.056-.215.1-.33.13a2.002 2.002 0 00-1.18.93l-.57.92c-.34.54-.7 1.12-1.07 1.75-.121.198-.219.41-.29.63a2.512 2.512 0 00-.09.69v2a1.08 1.08 0 00.19.71c.207.189.464.314.74.36.104.023.205.06.3.11a.169.169 0 01.1.16.183.183 0 01-.029.093.187.187 0 01-.071.067.531.531 0 01-.26.06l-1.05-.05h-.97c-.167 0-.5.02-1 .06h-1a.6.6 0 01-.29-.06m11.12-3.91c.14 0 .2 0 .2-.09a.47.47 0 000-.14l-.91-3.07c0-.1-.06-.15-.08-.15-.02 0 0 .05-.1.15l-1.09 3.07a.227.227 0 000 .11c0 .08.08.12.24.12h1.74zm-5.39 3.77a.222.222 0 01.08-.19.674.674 0 01.24-.11 1.63 1.63 0 001.13-.91c.82-1.89 1.6-3.88 2.36-6 .11-.3.19-.56.25-.76.06-.2.09-.33.09-.34.34-.09.65-.18.93-.28a1.83 1.83 0 00.71-.41.238.238 0 01.11 0 .11.11 0 01.11.08c.056.12.103.243.14.37.59 1.92 1.39 4.37 2.37 7.37a1.422 1.422 0 001.13.95.84.84 0 01.25.11c.025.023.045.05.058.082a.24.24 0 01.022.098.19.19 0 01-.08.15.359.359 0 01-.19.05h-4.16a.46.46 0 01-.21-.05.15.15 0 01-.09-.14c0-.14.11-.23.32-.29a2.18 2.18 0 00.7-.23.466.466 0 00.22-.39 1.005 1.005 0 000-.19l-.25-1-.19-.72a.27.27 0 00-.26-.25.24.24 0 00-.16 0h-2.41a.25.25 0 00-.15 0 .517.517 0 00-.08.18c-.24.74-.4 1.24-.47 1.51a.815.815 0 000 .27.508.508 0 00.2.43c.204.138.436.23.68.27.22.05.33.14.33.29 0 .15-.11.19-.32.19h-2.25a6.849 6.849 0 01-.79 0c-.24 0-.35-.07-.35-.22m18.62.23c-.3-.189-.564-.43-.78-.71-.83-.89-1.7-1.83-2.61-2.84l-2.62-2.83c-.09-.1-.15-.16-.17-.16-.02 0-.1.09-.1.27v4.74a.94.94 0 00.27.7c.231.197.511.328.81.38.25.05.38.14.38.27a.193.193 0 01-.1.15.47.47 0 01-.24.05h-2.77a.418.418 0 01-.22-.05c-.07 0-.11-.08-.11-.14.001-.03.01-.06.026-.087a.17.17 0 01.064-.063c.084-.055.175-.099.27-.13a1.17 1.17 0 00.69-1.12c.07-.67.14-1.48.19-2.43.05-.95.09-1.93.09-2.92a1.313 1.313 0 00-.31-1 2.45 2.45 0 00-.92-.56c-.26-.07-.38-.17-.38-.3 0-.13.11-.22.35-.22h2.63a.358.358 0 01.29.15c.35.4 1.05 1.2 2.11 2.39.88 1.02 1.88 2.133 3 3.34.093.12.163.18.21.18.08 0 .11-.07.11-.2v-4.53a.704.704 0 00-.26-.54 1.996 1.996 0 00-.75-.31c-.24-.06-.37-.15-.37-.29a.161.161 0 01.11-.13.41.41 0 01.23-.06h2.83a.45.45 0 01.24.06.16.16 0 01.09.15c0 .13-.11.22-.35.27-.247.026-.482.12-.68.27a.747.747 0 00-.22.57v2.84a56.39 56.39 0 00-.07 2.6c.004.435.041.87.11 1.3v.49c0 .41-.13.61-.38.61a1.296 1.296 0 01-.61-.24m7.99-.07c0-.13.14-.22.43-.27a1.057 1.057 0 00.943-.71 1.06 1.06 0 00.057-.41v-1.91a2.489 2.489 0 00-.37-1.15l-1.64-2.63a7.89 7.89 0 00-.57-.78 1.21 1.21 0 00-.59-.42 1.583 1.583 0 01-.31-.14.168.168 0 01-.074-.065.168.168 0 01-.026-.095c0-.1.12-.16.36-.16h3.11a.7.7 0 01.27 0c.07 0 .11.07.11.12 0 .05-.14.22-.42.29a1.1 1.1 0 00-.41.15.271.271 0 00-.12.24c.015.173.07.341.16.49l1.3 2.35c.15.27.26.41.34.41a.222.222 0 00.15-.08c.082-.104.155-.215.22-.33.28-.46.67-1.15 1.17-2.08.123-.19.199-.405.22-.63a.39.39 0 00-.19-.36 1.002 1.002 0 00-.44-.15.649.649 0 01-.29-.11c-.1-.05-.14-.11-.14-.17a.12.12 0 01.1-.12.791.791 0 01.29-.05h2.54c.27 0 .41.06.41.17 0 .11 0 .12-.14.16l-.47.16a1.36 1.36 0 00-.61.34c-.221.24-.418.502-.59.78l-.3.47-1.26 2a2.002 2.002 0 00-.34 1.25v2a1.013 1.013 0 00.24.74c.216.202.488.335.78.38a.93.93 0 01.32.1.16.16 0 01.11.15c0 .12-.13.18-.39.18h-.92a7.63 7.63 0 00-.82 0 8.416 8.416 0 00-.87 0h-.95c-.26 0-.39-.05-.39-.16m13.55-1.14a4 4 0 00.73-2.55 6.901 6.901 0 00-.36-2.28 3.708 3.708 0 00-1.07-1.65 2.53 2.53 0 00-1.75-.62 2.489 2.489 0 00-2.09.93 3.998 3.998 0 00-.73 2.52c-.006.78.112 1.557.35 2.3.204.64.573 1.217 1.07 1.67a2.8 2.8 0 003.85-.32zm-4.6.95a4.466 4.466 0 01-1.68-1.58 4.346 4.346 0 01-.63-2.33c-.008-.81.181-1.61.55-2.33a4.239 4.239 0 011.61-1.75 4.998 4.998 0 014.81-.09 4.416 4.416 0 011.69 1.58 4.32 4.32 0 01.63 2.32 5.222 5.222 0 01-.55 2.34 4.375 4.375 0 01-1.62 1.74 5.049 5.049 0 01-4.81.1zm12.94-4.76a2 2 0 00.5-1.37 2.4 2.4 0 00-.39-1.48 1.708 1.708 0 00-1.43-.51.528.528 0 00-.51.26c-.105.323-.156.66-.15 1v2.16c0 .2 0 .33.16.39.153.07.322.102.49.09a1.747 1.747 0 001.36-.55l-.03.01zm2.39 5.15a2.15 2.15 0 01-.88-.69c-.37-.46-.69-.89-1-1.28-.31-.39-.6-.9-1-1.55a1.267 1.267 0 00-.5-.5 2.68 2.68 0 00-.81-.13c-.13 0-.19.09-.19.27v2.46c-.012.26.07.515.23.72.197.205.458.336.74.37a.74.74 0 01.29.1.174.174 0 01.072.06.176.176 0 01.028.09c0 .11-.12.17-.35.17h-.91a5.343 5.343 0 00-.7 0 8.691 8.691 0 00-.89 0 3.724 3.724 0 00-.42 0h-.53c-.24 0-.36-.06-.36-.17a.168.168 0 01.029-.09.165.165 0 01.071-.06.741.741 0 01.3-.1 1.47 1.47 0 00.74-.31.878.878 0 00.22-.67v-5.9a3.925 3.925 0 00-.05-.71.531.531 0 00-.22-.33 1.544 1.544 0 00-.54-.15.522.522 0 01-.31-.1.213.213 0 01-.074-.077.218.218 0 01-.026-.103c0-.05 0-.09.1-.13a.62.62 0 01.25 0h2.16c.35 0 .69-.05 1-.05a4.088 4.088 0 012.34.55 1.888 1.888 0 01.8 1.66 2 2 0 01-.47 1.37 3.59 3.59 0 01-1.17.85v.17c.54.83 1 1.47 1.35 1.94.386.502.818.967 1.29 1.39.201.195.449.336.72.41.33.06.665.087 1 .08.14 0 .2.06.2.19s-.13.36-.39.46a2.74 2.74 0 01-.9.14 3.062 3.062 0 01-1.24-.22m3.24-.13c-.07 0-.11-.07-.11-.13a.177.177 0 01.028-.09.174.174 0 01.072-.06.86.86 0 01.32-.1c.257-.03.5-.135.7-.3.139-.205.203-.453.18-.7v-6.12a.901.901 0 00-.19-.65 1.432 1.432 0 00-.72-.3c-.26-.06-.39-.15-.39-.28 0-.13 0-.09.1-.13a.62.62 0 01.25 0h3.22c.23 0 .34.06.34.16s-.13.22-.39.28a1 1 0 00-.63.31 1.08 1.08 0 00-.15.64v2.62a.43.43 0 000 .16c0 .06 0 .08.07.08s.2-.07.35-.23l2.68-2.78a.68.68 0 00.23-.42c0-.18-.12-.29-.37-.34a.878.878 0 01-.29-.13.196.196 0 01-.066-.068.195.195 0 01-.024-.092c0-.05 0-.09.1-.12a.62.62 0 01.25 0h3.18a.519.519 0 01.23 0c.025.01.046.026.062.047a.14.14 0 01.028.073c0 .13-.15.23-.44.28a4.18 4.18 0 00-2.06.87c-.43.35-.83.71-1.2 1.07-.37.36-.82.82-1.33 1.36a.15.15 0 000 .11.26.26 0 00.09.19l3.28 3.55c.201.236.425.45.67.64.241.143.505.245.78.3.12.02.237.054.35.1a.193.193 0 01.1.15c0 .12-.15.18-.45.18h-3.35c-.24 0-.35-.06-.35-.18s.11-.19.33-.24c.22-.05.44-.17.44-.31a.681.681 0 00-.2-.37l-2.65-3c-.15-.14-.25-.21-.32-.21s-.08.08-.08.25c0 .81 0 1.66.06 2.56-.004.256.062.508.19.73.169.191.398.318.65.36a.93.93 0 01.32.1.165.165 0 01.071.06.168.168 0 01.029.09c0 .06 0 .1-.11.13a.738.738 0 01-.28.05 4.74 4.74 0 01-.91-.07c-.09.009-.18.009-.27 0h-.33a6.882 6.882 0 00-.78.06c-.38 0-.71.05-1 .05a.777.777 0 01-.28-.05"></path>
	</symbol>
	<symbol xmlns="http://www.w3.org/2000/svg" viewBox="0 0 10 21" id="icon-facebook">
		<path fill-rule="evenodd" clip-rule="evenodd" d="M6.516 21V10.499h2.898L9.8 6.88H6.516l.005-1.811c0-.944.09-1.45 1.445-1.45h1.812V0h-2.9C3.397 0 2.172 1.756 2.172 4.708V6.88H0v3.62h2.17V21h4.346z"></path>
	</symbol>
	<symbol xmlns="http://www.w3.org/2000/svg" viewBox="0 0 21 21" id="icon-instagram">
		<path fill-rule="evenodd" clip-rule="evenodd" d="M10.295 0C7.5 0 7.15.012 6.051.062 4.955.112 4.207.286 3.552.54a5.04 5.04 0 00-1.824 1.188A5.054 5.054 0 00.54 3.55C.285 4.206.111 4.954.062 6.049.012 7.148 0 7.5 0 10.294c0 2.796.012 3.146.062 4.244.05 1.096.224 1.844.478 2.499a5.044 5.044 0 001.188 1.823 5.04 5.04 0 001.823 1.188c.655.255 1.403.429 2.499.479 1.098.05 1.448.062 4.244.062s3.146-.012 4.244-.062c1.096-.05 1.845-.224 2.5-.479a5.035 5.035 0 001.822-1.188 5.053 5.053 0 001.188-1.823c.253-.655.427-1.403.479-2.499.049-1.098.062-1.448.062-4.244 0-2.795-.013-3.146-.063-4.244-.051-1.096-.225-1.844-.478-2.499a5.052 5.052 0 00-1.188-1.823A5.03 5.03 0 0017.037.54c-.656-.254-1.405-.428-2.5-.478C13.437.012 13.088 0 10.291 0h.003zm-.923 1.855h.923c2.749 0 3.075.01 4.16.06 1.004.045 1.549.213 1.911.354.48.186.823.41 1.183.77.36.36.584.703.77 1.184.142.362.31.907.355 1.91.05 1.086.06 1.412.06 4.16 0 2.746-.01 3.072-.06 4.158-.046 1.003-.213 1.548-.354 1.91-.187.48-.41.823-.77 1.183a3.19 3.19 0 01-1.184.77c-.362.142-.907.309-1.91.355-1.086.05-1.412.06-4.16.06-2.75 0-3.075-.01-4.16-.06-1.004-.047-1.549-.214-1.912-.355a3.189 3.189 0 01-1.184-.77 3.19 3.19 0 01-.77-1.183c-.141-.363-.31-.908-.355-1.911-.05-1.085-.059-1.411-.059-4.16 0-2.75.01-3.074.06-4.159.045-1.004.213-1.548.354-1.911.186-.48.41-.824.77-1.184.36-.36.704-.584 1.184-.77.363-.142.908-.31 1.911-.356.95-.042 1.318-.055 3.237-.057v.002zm6.418 1.71a1.235 1.235 0 100 2.47 1.235 1.235 0 000-2.47zm-5.495 1.443a5.287 5.287 0 100 10.573 5.287 5.287 0 000-10.573zm0 1.855a3.432 3.432 0 110 6.863 3.432 3.432 0 010-6.863z"></path>
	</symbol>
	<symbol xmlns="http://www.w3.org/2000/svg" viewBox="0 0 19 17" id="icon-twitter">
		<path fill-rule="evenodd" clip-rule="evenodd" d="M9.387 4.682l.04.668-.674-.082c-2.457-.313-4.604-1.377-6.427-3.162l-.89-.886-.23.654c-.487 1.458-.176 2.999.837 4.035.54.572.418.654-.513.313-.324-.109-.608-.19-.635-.15-.095.096.23 1.336.486 1.827.351.681 1.067 1.35 1.85 1.744l.661.314-.783.013c-.756 0-.783.014-.702.3.27.886 1.337 1.827 2.525 2.236l.837.286-.73.436a7.602 7.602 0 01-3.617 1.009c-.608.013-1.108.068-1.108.109 0 .136 1.648.9 2.606 1.2 2.876.885 6.292.504 8.857-1.01 1.823-1.076 3.645-3.216 4.496-5.288.459-1.104.918-3.121.918-4.089 0-.627.04-.709.797-1.458.445-.437.864-.914.945-1.05.135-.259.121-.259-.567-.027-1.148.409-1.31.354-.743-.26.419-.435.918-1.226.918-1.458 0-.04-.202.028-.432.15-.243.137-.783.341-1.188.464l-.73.231-.66-.45c-.365-.245-.878-.517-1.148-.6-.689-.19-1.742-.163-2.363.055-1.688.614-2.754 2.195-2.633 3.926z"></path>
	</symbol>
	<symbol xmlns="http://www.w3.org/2000/svg" viewBox="0 0 21 16" id="icon-youtube">
		<path fill-rule="evenodd" clip-rule="evenodd" d="M20.295 2.885a2.614 2.614 0 00-1.82-1.869C16.869.574 10.43.574 10.43.574s-6.438 0-8.044.442a2.614 2.614 0 00-1.82 1.869c-.43 1.649-.43 5.088-.43 5.088s0 3.44.43 5.089c.237.91.934 1.625 1.82 1.869 1.606.441 8.044.441 8.044.441s6.438 0 8.044-.441a2.614 2.614 0 001.82-1.87c.43-1.648.43-5.088.43-5.088s0-3.44-.43-5.088z"></path>
	<path fill-rule="evenodd" clip-rule="evenodd" d="M8.5 11.512V5.078l5.148 3.217-5.147 3.217z" fill="#fff"></path>
	</symbol>
</svg>